<svg width="136" height="46" viewBox="0 0 136 46" fill="none" xmlns="http://www.w3.org/2000/svg">
<path d="M1.476 34.624H3.996V14.248H1.476V11.872H20.664V18.568H16.488V14.464H9.828V34.624H13.248V37H1.476V34.624ZM23.1323 34.624H25.6523V14.248H23.1323V11.872H43.1843V18.568H39.0083V14.464H31.4843V22.6H36.2363V20.44H38.9003V27.352H36.2363V25.192H31.4843V34.408H39.2963V29.584H43.4723V37H23.1323V34.624ZM59.0316 34.768C59.7756 34.768 60.4716 34.648 61.1196 34.408C61.7676 34.168 62.3316 33.796 62.8116 33.292C63.3156 32.788 63.7116 32.14 63.9996 31.348C64.2876 30.556 64.4316 29.608 64.4316 28.504V20.368C64.4316 19.264 64.2876 18.316 63.9996 17.524C63.7116 16.732 63.3156 16.084 62.8116 15.58C62.3316 15.076 61.7676 14.704 61.1196 14.464C60.4716 14.224 59.7756 14.104 59.0316 14.104C58.2876 14.104 57.5916 14.224 56.9436 14.464C56.2956 14.704 55.7196 15.076 55.2156 15.58C54.7356 16.084 54.3516 16.732 54.0636 17.524C53.7756 18.316 53.6316 19.264 53.6316 20.368V28.504C53.6316 29.608 53.7756 30.556 54.0636 31.348C54.3516 32.14 54.7356 32.788 55.2156 33.292C55.7196 33.796 56.2956 34.168 56.9436 34.408C57.5916 34.648 58.2876 34.768 59.0316 34.768ZM59.0316 37.432C57.3516 37.432 55.7916 37.144 54.3516 36.568C52.9116 35.992 51.6636 35.164 50.6076 34.084C49.5516 32.98 48.7236 31.624 48.1236 30.016C47.5236 28.384 47.2236 26.524 47.2236 24.436C47.2236 22.348 47.5236 20.5 48.1236 18.892C48.7236 17.26 49.5516 15.904 50.6076 14.824C51.6636 13.72 52.9116 12.88 54.3516 12.304C55.7916 11.728 57.3516 11.44 59.0316 11.44C60.7116 11.44 62.2716 11.728 63.7116 12.304C65.1516 12.88 66.3996 13.72 67.4556 14.824C68.5116 15.904 69.3396 17.26 69.9396 18.892C70.5396 20.5 70.8396 22.348 70.8396 24.436C70.8396 26.524 70.5396 28.384 69.9396 30.016C69.3396 31.624 68.5116 32.98 67.4556 34.084C66.3996 35.164 65.1516 35.992 63.7116 36.568C62.2716 37.144 60.7116 37.432 59.0316 37.432ZM75.1703 24.04H85.9703V28H75.1703V24.04Z" fill="#0D1A2A"/>
<path d="M103.164 17.128H91.824V20.872H89.196V11.872H106.548V16.3L98.412 37H92.76L103.164 17.128ZM110.062 34.624H112.582V14.248H110.062V11.872H121.798C123.526 11.872 125.122 12.16 126.586 12.736C128.074 13.288 129.358 14.104 130.438 15.184C131.518 16.24 132.358 17.548 132.958 19.108C133.582 20.668 133.894 22.444 133.894 24.436C133.894 26.428 133.582 28.204 132.958 29.764C132.358 31.324 131.518 32.644 130.438 33.724C129.358 34.78 128.074 35.596 126.586 36.172C125.122 36.724 123.526 37 121.798 37H110.062V34.624ZM118.414 34.408H120.754C121.954 34.408 122.974 34.288 123.814 34.048C124.678 33.808 125.374 33.436 125.902 32.932C126.454 32.404 126.85 31.72 127.09 30.88C127.354 30.016 127.486 28.972 127.486 27.748V21.124C127.486 19.9 127.354 18.868 127.09 18.028C126.85 17.164 126.454 16.48 125.902 15.976C125.374 15.448 124.678 15.064 123.814 14.824C122.974 14.584 121.954 14.464 120.754 14.464H118.414V34.408Z" fill="#A1D1DA"/>
</svg>
