<svg width="24" height="24" viewBox="0 0 24 24" fill="none" xmlns="http://www.w3.org/2000/svg">
<rect x="1.5" y="1.5" width="21" height="21" rx="10.5" stroke="white"/>
<path d="M12.1182 5.16675C15.875 5.16675 18.8329 8.22648 18.833 12.0212V12.0232C18.8456 15.7452 15.8558 18.7704 12.1553 18.7908C11.4583 18.7907 10.9908 18.7394 10.5703 18.6042C10.1502 18.4692 9.74164 18.2398 9.17969 17.8318L8.78711 17.5466L8.49023 17.9304C8.2131 18.288 7.56558 18.6628 6.96191 18.7908C6.66182 18.8544 6.4488 18.8399 6.33398 18.7957C6.28454 18.7766 6.26472 18.756 6.25488 18.7429C6.25017 18.7367 6.24238 18.7254 6.23535 18.7058L6.21875 18.6189C6.21445 17.8646 6.08934 17.1977 5.92773 16.5476L5.75488 15.8894C5.4729 14.8125 5.16607 13.6601 5.16602 11.9832C5.16602 8.10217 8.33489 5.16687 12.1182 5.16675ZM12.2422 7.77612C10.0494 7.66256 8.36244 9.15458 7.91992 11.3904L7.88086 11.6091C7.73018 12.5644 7.78935 13.6078 7.93945 14.4275C8.0145 14.8372 8.11581 15.2105 8.23535 15.4998C8.29453 15.6429 8.36552 15.7828 8.45117 15.9001C8.5264 16.0031 8.66648 16.1627 8.88672 16.2214V16.2224L8.89746 16.2253C9.12275 16.28 9.32847 16.1968 9.4248 16.1531C9.54735 16.0974 9.66982 16.0202 9.7793 15.9421C9.89073 15.8627 10.0031 15.7705 10.1104 15.6775C10.6258 15.9646 11.1972 16.1407 11.7881 16.1882L11.7959 16.1892H11.8037C14.1172 16.3009 16.0901 14.5324 16.2451 12.2166L16.2461 12.2029C16.3301 10.0427 14.7956 8.18733 12.7168 7.83374V7.80054L12.2422 7.77612Z" fill="white" stroke="white"/>
</svg>
